<?xml version="1.0" encoding="UTF-8"?>
<svg width="28px" height="23px" viewBox="0 0 28 23" version="1.1" xmlns="http://www.w3.org/2000/svg" xmlns:xlink="http://www.w3.org/1999/xlink">
    <!-- Generator: Sketch 47.1 (45422) - http://www.bohemiancoding.com/sketch -->
    <title>icono_twitter</title>
    <desc>Created with Sketch.</desc>
    <defs></defs>
    <g id="Page-1" stroke="none" stroke-width="1" fill="none" fill-rule="evenodd">
        <g id="Cultura" transform="translate(-1023.000000, -4274.000000)" fill="#F1F0EB">
            <g id="FOOTER" transform="translate(0.000000, 4159.000000)">
                <g id="segueix-nos" transform="translate(969.000000, 70.000000)">
                    <g id="icono_twitter" transform="translate(53.000000, 45.000000)">
                        <path d="M28.1693,3.0645 C27.1683,3.5075 26.0923,3.8075 24.9633,3.9425 C26.1153,3.2515 27.0003,2.1585 27.4173,0.8555 C26.3393,1.4955 25.1453,1.9595 23.8733,2.2095 C22.8553,1.1255 21.4043,0.4475 19.7993,0.4475 C16.7173,0.4475 14.2183,2.9465 14.2183,6.0285 C14.2183,6.4655 14.2683,6.8915 14.3623,7.2995 C9.7253,7.0675 5.6113,4.8445 2.8593,1.4685 C2.3793,2.2935 2.1043,3.2515 2.1043,4.2745 C2.1043,6.2105 3.0893,7.9185 4.5863,8.9195 C3.6723,8.8905 2.8113,8.6395 2.0593,8.2215 C2.0583,8.2455 2.0583,8.2685 2.0583,8.2925 C2.0583,10.9965 3.9823,13.2525 6.5353,13.7645 C6.0663,13.8915 5.5733,13.9605 5.0653,13.9605 C4.7053,13.9605 4.3563,13.9245 4.0153,13.8605 C4.7253,16.0775 6.7863,17.6905 9.2283,17.7365 C7.3183,19.2325 4.9113,20.1255 2.2973,20.1255 C1.8463,20.1255 1.4023,20.0985 0.9653,20.0465 C3.4363,21.6305 6.3693,22.5545 9.5213,22.5545 C19.7863,22.5545 25.3993,14.0495 25.3993,6.6745 C25.3993,6.4335 25.3953,6.1925 25.3843,5.9535 C26.4743,5.1665 27.4203,4.1835 28.1693,3.0645" id="Fill-9"></path>
                    </g>
                </g>
            </g>
        </g>
    </g>
</svg>