<?xml version="1.0" encoding="UTF-8"?>
<svg width="33px" height="23px" viewBox="0 0 33 23" version="1.1" xmlns="http://www.w3.org/2000/svg" xmlns:xlink="http://www.w3.org/1999/xlink">
    <!-- Generator: Sketch 47.1 (45422) - http://www.bohemiancoding.com/sketch -->
    <title>icono_youtube</title>
    <desc>Created with Sketch.</desc>
    <defs></defs>
    <g id="Page-1" stroke="none" stroke-width="1" fill="none" fill-rule="evenodd">
        <g id="Cultura" transform="translate(-1068.000000, -4274.000000)" fill="#F1F0EB">
            <g id="FOOTER" transform="translate(0.000000, 4159.000000)">
                <g id="segueix-nos" transform="translate(969.000000, 70.000000)">
                    <g id="icono_youtube" transform="translate(99.000000, 45.000000)">
                        <path d="M13.2406,15.1455 L13.2386,6.3575 L21.6896,10.7665 L13.2406,15.1455 Z M31.7946,4.8345 C31.7946,4.8345 31.4886,2.6795 30.5516,1.7305 C29.3616,0.4855 28.0286,0.4795 27.4176,0.4065 C23.0406,0.0895 16.4756,0.0895 16.4756,0.0895 L16.4626,0.0895 C16.4626,0.0895 9.8976,0.0895 5.5206,0.4065 C4.9096,0.4795 3.5766,0.4855 2.3866,1.7305 C1.4496,2.6795 1.1436,4.8345 1.1436,4.8345 C1.1436,4.8345 0.8316,7.3665 0.8316,9.8975 L0.8316,12.2695 C0.8316,14.8005 1.1436,17.3315 1.1436,17.3315 C1.1436,17.3315 1.4496,19.4865 2.3866,20.4355 C3.5766,21.6815 5.1396,21.6415 5.8356,21.7725 C8.3376,22.0125 16.4696,22.0865 16.4696,22.0865 C16.4696,22.0865 23.0406,22.0775 27.4176,21.7605 C28.0286,21.6875 29.3616,21.6815 30.5516,20.4355 C31.4886,19.4865 31.7946,17.3315 31.7946,17.3315 C31.7946,17.3315 32.1066,14.8005 32.1066,12.2695 L32.1066,9.8975 C32.1066,7.3665 31.7946,4.8345 31.7946,4.8345 L31.7946,4.8345 Z" id="Fill-11"></path>
                    </g>
                </g>
            </g>
        </g>
    </g>
</svg>