<?xml version="1.0" encoding="UTF-8"?>
<svg width="32px" height="32px" viewBox="0 0 32 32" version="1.1" xmlns="http://www.w3.org/2000/svg" xmlns:xlink="http://www.w3.org/1999/xlink">
    <!-- Generator: Sketch 47.1 (45422) - http://www.bohemiancoding.com/sketch -->
    <title>icono_facebook</title>
    <desc>Created with Sketch.</desc>
    <defs></defs>
    <g id="Page-1" stroke="none" stroke-width="1" fill="none" fill-rule="evenodd">
        <g id="Cultura" transform="translate(-970.000000, -4269.000000)" fill="#F1F0EB">
            <g id="FOOTER" transform="translate(0.000000, 4159.000000)">
                <g id="segueix-nos" transform="translate(969.000000, 70.000000)">
                    <g id="icono_facebook" transform="translate(1.000000, 40.000000)">
                        <path d="M29.973,0.1328 L2.269,0.1328 C1.319,0.1328 0.549,0.9028 0.549,1.8518 L0.549,29.5568 C0.549,30.5058 1.319,31.2758 2.269,31.2758 L17.184,31.2758 L17.184,19.2148 L13.125,19.2148 L13.125,14.5158 L17.184,14.5158 L17.184,11.0488 C17.184,7.0268 19.64,4.8358 23.229,4.8358 C24.948,4.8358 26.425,4.9638 26.855,5.0218 L26.855,9.2258 L24.367,9.2268 C22.415,9.2268 22.037,10.1538 22.037,11.5148 L22.037,14.5158 L26.692,14.5158 L26.085,19.2148 L22.037,19.2148 L22.037,31.2758 L29.973,31.2758 C30.922,31.2758 31.692,30.5058 31.692,29.5568 L31.692,1.8518 C31.692,0.9028 30.922,0.1328 29.973,0.1328" id="Fill-7"></path>
                    </g>
                </g>
            </g>
        </g>
    </g>
</svg>