<?xml version="1.0" encoding="UTF-8"?>
<svg width="32px" height="32px" viewBox="0 0 32 32" version="1.1" xmlns="http://www.w3.org/2000/svg" xmlns:xlink="http://www.w3.org/1999/xlink">
    <!-- Generator: Sketch 47.1 (45422) - http://www.bohemiancoding.com/sketch -->
    <title>icono_instragram</title>
    <desc>Created with Sketch.</desc>
    <defs></defs>
    <g id="Page-1" stroke="none" stroke-width="1" fill="none" fill-rule="evenodd">
        <g id="Cultura" transform="translate(-1121.000000, -4269.000000)" fill="#F1F0EB">
            <g id="FOOTER" transform="translate(0.000000, 4159.000000)">
                <g id="segueix-nos" transform="translate(969.000000, 70.000000)">
                    <g id="icono_instragram" transform="translate(152.000000, 40.000000)">
                        <path d="M15.638,0 C11.391,0 10.859,0.018 9.191,0.094 C7.527,0.17 6.39,0.435 5.395,0.82 C4.367,1.221 3.494,1.755 2.625,2.624 C1.756,3.494 1.221,4.366 0.822,5.395 C0.435,6.389 0.17,7.525 0.095,9.19 C0.019,10.858 0,11.391 0,15.638 C0,19.885 0.019,20.417 0.095,22.085 C0.17,23.749 0.435,24.886 0.822,25.881 C1.221,26.909 1.756,27.781 2.625,28.65 C3.494,29.52 4.367,30.055 5.395,30.454 C6.39,30.841 7.527,31.105 9.191,31.181 C10.859,31.257 11.391,31.275 15.638,31.275 C19.885,31.275 20.417,31.257 22.085,31.181 C23.75,31.105 24.887,30.841 25.881,30.454 C26.909,30.055 27.782,29.52 28.652,28.65 C29.521,27.781 30.055,26.909 30.455,25.881 C30.841,24.886 31.106,23.749 31.182,22.085 C31.258,20.417 31.276,19.885 31.276,15.638 C31.276,11.391 31.258,10.858 31.182,9.19 C31.106,7.525 30.841,6.389 30.455,5.395 C30.055,4.366 29.521,3.494 28.652,2.624 C27.782,1.755 26.909,1.221 25.881,0.82 C24.887,0.435 23.75,0.17 22.085,0.094 C20.417,0.018 19.885,0 15.638,0 M15.638,2.817 C19.814,2.817 20.308,2.833 21.957,2.908 C23.482,2.979 24.31,3.232 24.861,3.447 C25.591,3.73 26.112,4.069 26.659,4.617 C27.206,5.164 27.545,5.685 27.828,6.415 C28.043,6.966 28.297,7.794 28.367,9.318 C28.443,10.968 28.458,11.462 28.458,15.638 C28.458,19.812 28.443,20.308 28.367,21.956 C28.297,23.481 28.043,24.31 27.828,24.86 C27.545,25.59 27.206,26.111 26.659,26.658 C26.112,27.205 25.591,27.544 24.861,27.828 C24.31,28.042 23.482,28.297 21.957,28.366 C20.309,28.441 19.814,28.458 15.638,28.458 C11.462,28.458 10.968,28.441 9.32,28.366 C7.794,28.297 6.966,28.042 6.415,27.828 C5.686,27.544 5.164,27.205 4.617,26.658 C4.071,26.111 3.732,25.59 3.448,24.86 C3.234,24.31 2.979,23.481 2.909,21.956 C2.834,20.308 2.818,19.812 2.818,15.638 C2.818,11.462 2.834,10.968 2.909,9.318 C2.979,7.794 3.234,6.966 3.448,6.415 C3.732,5.685 4.071,5.164 4.617,4.617 C5.164,4.069 5.686,3.73 6.415,3.447 C6.966,3.232 7.794,2.979 9.32,2.908 C10.968,2.833 11.463,2.817 15.638,2.817" id="Fill-1"></path>
                        <path d="M15.638,20.8496 C12.759,20.8496 10.426,18.5166 10.426,15.6376 C10.426,12.7586 12.759,10.4246 15.638,10.4246 C18.517,10.4246 20.851,12.7586 20.851,15.6376 C20.851,18.5166 18.517,20.8496 15.638,20.8496 M15.638,7.6076 C11.203,7.6076 7.608,11.2026 7.608,15.6376 C7.608,20.0726 11.203,23.6676 15.638,23.6676 C20.074,23.6676 23.668,20.0726 23.668,15.6376 C23.668,11.2026 20.074,7.6076 15.638,7.6076" id="Fill-3"></path>
                        <path d="M25.8626,7.2901 C25.8626,8.3261 25.0216,9.1671 23.9856,9.1671 C22.9496,9.1671 22.1086,8.3261 22.1086,7.2901 C22.1086,6.2541 22.9496,5.4131 23.9856,5.4131 C25.0216,5.4131 25.8626,6.2541 25.8626,7.2901" id="Fill-5"></path>
                    </g>
                </g>
            </g>
        </g>
    </g>
</svg>